# xmcd
#
# Track frame offsets:
#	150
#	15137
#	29925
#	41507
#	53765
#	72575
#	93222
#	112692
#	128272
#	144080
#	158362
#	169432
#	182715
#
# Disc length: 2656 seconds
#
# Revision: 0
# Processed by: cddbd v1.5.1PL0 Copyright (c) Steve Scherf et al.
# Submitted via: audiograbber 1.83.01
#
DISCID=980a5e0d
DTITLE=Albie Donnelly - The Spirit In Me
DYEAR=1994
DGENRE=R&B
TTITLE0=Don't Do That She Might Get Mad
TTITLE1=Main Squeeze
TTITLE2=I Won't Cry Anymore
TTITLE3=You Had Your Chance
TTITLE4=Hold It
TTITLE5=Sir La Dude
TTITLE6=Personal Manager
TTITLE7=The Spirit In Me
TTITLE8=Cried Last Night
TTITLE9=In A Sentimental Mood
TTITLE10=Cakewalk Into Town
TTITLE11=Gotta Be The Boy
TTITLE12=Every Time We Say Goodbye
EXTD=
EXTT0=
EXTT1=
EXTT2=
EXTT3=
EXTT4=
EXTT5=
EXTT6=
EXTT7=
EXTT8=
EXTT9=
EXTT10=
EXTT11=
EXTT12=
PLAYORDER=
